<svg xmlns="http://www.w3.org/2000/svg" width="566.231" height="770" viewBox="0 0 566.231 770"><g transform="translate(-677 -172)"><g transform="translate(275.403 -33.001)"><g transform="translate(401.597 205.001)"><g transform="translate(0 0)"><g transform="translate(380.913 266.761)"><path d="M919.762,364.152l-21.621,42.8L833.5,436.34c-6.9,11.666-28.84,12.56-30.436,5.019-1.79-8.463,26.641-22.086,26.641-22.086L883.779,382.7l4.731-31.483Z" transform="translate(-802.988 -205.955)" fill="#9f616a"/><path d="M747.461,464.215l3.987,31.893-23.126,1.6-2.39-33.491Z" transform="translate(-633.238 -18.793)" fill="#9f616a"/><path d="M914.314,680.215a62.611,62.611,0,0,0,5.707-6.978c3.311-4.586,6.252,18.939,6.252,18.939s3.19,9.569,2.39,14.354-19.137,4.785-22.328,3.99-19.137,0-19.137,0H863.275c-20.734-9.569,0-15.949,0-15.949,6.38-.8,27.909-20.733,27.909-20.733l4.785-8.771c3.189-.8,6.38,11.164,6.38,11.164Z" transform="translate(-803.279 -207.682)" fill="#090814"/><path d="M807.6,464.616l3.99,31.893-23.126,1.6-2.39-33.493Z" transform="translate(-633.567 -18.795)" fill="#9f616a"/><path d="M974.445,680.618a62.689,62.689,0,0,0,5.707-6.978c3.314-4.586,6.254,18.939,6.254,18.939s3.189,8.772,2.39,13.556-19.137,4.779-22.328,3.99-19.137.8-19.137.8H923.408c-20.734-9.569,0-15.949,0-15.949,6.38-.8,27.909-20.733,27.909-20.733l4.785-8.771c3.189-.8,6.38,11.164,6.38,11.164Z" transform="translate(-803.606 -207.684)" fill="#090814"/><path d="M951.029,446.56c3.19,3.99,1.595,17.543,1.595,17.543s5.582,43.858,3.189,47.845,1.595,7.177,3.99,12.759,4.786,19.137,4.786,19.137c13.556,11.164,12.759,62.2,12.759,62.2l4.779,45.452c-1.595,4.785-23.923,5.582-27.114,4.785s-12.759-72.565-12.759-72.565l-21.529-40.668s1.595,108.448,1.595,113.235-21.53,2.39-26.314,2.39-4.785-79.742-4.785-79.742L886.435,558.2l-25.517-94.892V452.139l3.99-5.582S947.84,442.573,951.029,446.56Z" transform="translate(-803.316 -206.471)" fill="#090814"/><path d="M4.393,19.138l6.38,5.581L9.667,35.808A24.717,24.717,0,1,0,34.706,32.8C34.464,23.289,38.022,12.02,45.064,0Z" transform="translate(137.351 89.776) rotate(180)" fill="#9f616a"/><path d="M903.577,276.949c-5.325,3.166-8.511,8.983-10.34,14.9a141.244,141.244,0,0,0-6.066,33.742l-1.93,34.283-23.923,90.906c20.732,17.543,32.689,13.556,60.6-.8s31.1,4.788,31.1,4.788,2.39-.8,0-3.189,0,0,2.39-2.39,0,0-.8-2.39,0-.8.8-1.595-3.189-7.98-3.189-7.98l6.377-59.809,7.98-84.525c-9.569-11.961-36.679-22.328-36.679-22.328l-24.724,17.543c-7.98,3.189-1.595-9.569-1.595-9.569Z" transform="translate(-803.31 -205.513)" fill="#e6e6e6"/><path d="M980.1,343.937l3.189,47.845-40.673,58.211c0,13.556-7.176,16.746-7.176,16.746a105.388,105.388,0,0,1-7.176-13.556c-3.99-8.772,2.39-15.949,2.39-15.949l27.909-59.007-11.961-29.5Z" transform="translate(-803.676 -205.917)" fill="#9f616a"/><path d="M966.6,293.412c13.556,4.785,15.948,56.618,15.948,56.618-15.948-8.772-35.086,5.582-35.086,5.582s-3.99-13.556-8.772-31.1a30.475,30.475,0,0,1,6.38-28.708S953.036,288.629,966.6,293.412Z" transform="translate(-803.726 -205.629)" fill="#e6e6e6"/><path d="M938.828,247.084c-3.147-2.517-7.44,2.059-7.44,2.059l-2.517-22.659s-15.734,1.888-25.805-.63-11.643,9.126-11.643,9.126a80.83,80.83,0,0,1-.315-14.154c.63-5.663,8.813-11.325,23.288-15.106s22.028,12.592,22.028,12.592C946.489,223.338,941.975,249.6,938.828,247.084Z" transform="translate(-803.474 -205.154)" fill="#090814"/></g><path d="M632.985,262.174H628.94v-115.9c0-37.048-28.678-67.081-64.054-67.082H330.419c-35.377,0-64.055,30.033-64.055,67.082V782.108c0,37.048,28.678,67.082,64.055,67.082H564.886c35.377,0,64.055-30.034,64.055-67.082V344.664h4.044Z" transform="translate(-234.396 -79.19)" fill="#090814"/><path d="M567.292,95.686h-30.6A24.862,24.862,0,0,1,534.51,118a22.455,22.455,0,0,1-18.866,10.544H381.31A22.458,22.458,0,0,1,362.442,118a24.86,24.86,0,0,1-2.179-22.31H331.685c-26.419,0-47.836,22.477-47.836,50.2V782.157c0,27.725,21.416,50.2,47.834,50.2h235.6c26.419,0,47.835-22.477,47.835-50.2V145.889c0-27.725-21.414-50.2-47.831-50.2Z" transform="translate(-234.209 -79.018)" fill="#fff"/><path d="M615.722,480.925H479.434a18.509,18.509,0,0,1-18.488-18.488V270.71a84.518,84.518,0,0,1,84.423-84.423h70.354a18.509,18.509,0,0,1,18.488,18.488V462.437A18.509,18.509,0,0,1,615.722,480.925Z" transform="translate(-329.274 -50.909)" fill="#d6d6e3"/><path d="M485.56,367.571a7.8,7.8,0,0,0-7.787,7.787v43.762a7.8,7.8,0,0,0,7.787,7.787H618.007a7.8,7.8,0,0,0,7.787-7.787V375.357a7.8,7.8,0,0,0-7.787-7.787Z" transform="translate(-330.635 -60.452)" fill="#fff"/><path d="M618.3,331.346H485.851a8.434,8.434,0,0,1-8.425-8.425,52.246,52.246,0,0,1,52.187-52.187H618.3a8.434,8.434,0,0,1,8.425,8.425v43.762A8.435,8.435,0,0,1,618.3,331.346Z" transform="translate(-330.607 -57.175)" fill="#fff"/><path d="M679.022,420.693H526.554a3.384,3.384,0,0,1-3.38-3.38V377.14a3.384,3.384,0,0,1,3.38-3.38H679.022a3.384,3.384,0,0,1,3.38,3.38v40.173a3.384,3.384,0,0,1-3.38,3.38Z" transform="translate(-334.307 -60.936)" fill="#fff"/><path d="M678.966,421.275H526.5a4.023,4.023,0,0,1-4.018-4.018V377.084a4.023,4.023,0,0,1,4.018-4.018H678.966a4.023,4.023,0,0,1,4.018,4.018v40.173A4.023,4.023,0,0,1,678.966,421.275ZM526.5,374.342a2.746,2.746,0,0,0-2.742,2.742v40.173A2.746,2.746,0,0,0,526.5,420H678.966a2.746,2.746,0,0,0,2.742-2.742V377.084a2.745,2.745,0,0,0-2.742-2.742Z" transform="translate(-334.251 -60.885)" fill="#ccc"/><circle cx="5.485" cy="5.485" r="5.485" transform="translate(199.728 320.536)" fill="#090814"/><path d="M670.864,403.26H536.623a1.633,1.633,0,1,1,0-3.267h134.24a1.633,1.633,0,0,1,0,3.267Z" transform="translate(-335.262 -62.811)" fill="#090814"/><path d="M657.525,410.282h-120.9a1.633,1.633,0,1,1,0-3.267h120.9a1.633,1.633,0,1,1,0,3.267Z" transform="translate(-335.262 -63.072)" fill="#090814"/><path d="M516.93,695.551l-37.318-14.874a3.384,3.384,0,0,1-1.888-4.391l56.452-141.631a3.384,3.384,0,0,1,4.391-1.889l37.318,14.874a3.384,3.384,0,0,1,1.888,4.392L521.321,693.663a3.384,3.384,0,0,1-4.391,1.888Z" transform="translate(-330.611 -61.858)" fill="#fff"/><path d="M516.637,696.088l-37.318-14.874a4.023,4.023,0,0,1-2.245-5.22l56.452-141.631a4.023,4.023,0,0,1,5.22-2.245l37.318,14.874a4.023,4.023,0,0,1,2.245,5.22L521.858,693.843a4.023,4.023,0,0,1-5.22,2.245ZM478.26,676.466a2.745,2.745,0,0,0,1.532,3.562L517.11,694.9a2.745,2.745,0,0,0,3.563-1.532l56.453-141.631a2.745,2.745,0,0,0-1.532-3.562L538.275,533.3a2.745,2.745,0,0,0-3.562,1.532Z" transform="translate(-330.555 -61.781)" fill="#090814"/><circle cx="5.485" cy="5.485" r="5.485" transform="translate(205.873 479.364)" fill="#090814"/><path d="M506.688,680.5a1.635,1.635,0,0,1-.912-2.122l49.7-124.7a1.633,1.633,0,1,1,3.034,1.209l-49.7,124.7A1.635,1.635,0,0,1,506.688,680.5Z" transform="translate(-332.89 -63.994)" fill="#090814"/><path d="M518.584,670.706a1.636,1.636,0,0,1-.913-2.122l44.765-112.309a1.633,1.633,0,1,1,3.035,1.21L520.706,669.793a1.635,1.635,0,0,1-2.122.913Z" transform="translate(-333.852 -64.599)" fill="#090814"/><ellipse cx="14.438" cy="14.438" rx="14.438" ry="14.438" transform="translate(263.731 141.125)" fill="#fff"/><path d="M626.763,210.569h-6.495v-6.495a.614.614,0,1,0-1.229,0v6.495h-6.495a.614.614,0,0,0,0,1.229h6.495v6.495a.614.614,0,1,0,1.229,0V211.8h6.495a.614.614,0,1,0,0-1.229Z" transform="translate(-341.485 -55.374)" fill="#e6e6e6"/><path d="M808.574,222.656H759.861a11.949,11.949,0,1,1,0-23.9h48.713a11.949,11.949,0,0,1,0,23.9Z" transform="translate(-352.484 -55.124)" fill="#6c63ff"/><rect width="1.838" height="94.145" transform="translate(289.618 152.642) rotate(-89.173)" fill="#3f3d56"/><path d="M628.116,212.021a4.6,4.6,0,1,1,2.01-.467A4.6,4.6,0,0,1,628.116,212.021Zm-.006-7.357a2.759,2.759,0,1,0,2.481,1.551h0a2.764,2.764,0,0,0-2.481-1.55Z" transform="translate(-342.421 -55.409)" fill="#3f3d56"/><path d="M321.686,240.708a11.962,11.962,0,0,1,11.948-11.949h48.713a11.949,11.949,0,0,1,0,23.9H333.635A11.962,11.962,0,0,1,321.686,240.708Z" transform="translate(-318.01 -56.204)" fill="#6c63ff"/><rect width="94.145" height="1.838" transform="translate(87.935 181.052) rotate(-0.827)" fill="#3f3d56"/><path d="M517.665,241.56a4.565,4.565,0,1,1,2.01.467,4.565,4.565,0,0,1-2.01-.467Zm1.116-6.738a2.738,2.738,0,0,0-1.58,1.4h0a2.764,2.764,0,1,0,1.58-1.4Z" transform="translate(-333.654 -56.52)" fill="#3f3d56"/><path d="M317.686,633.708a11.962,11.962,0,0,1,11.948-11.949h48.713a11.949,11.949,0,0,1,0,23.9H329.635A11.962,11.962,0,0,1,317.686,633.708Z" transform="translate(-317.686 -70.35)" fill="#6c63ff"/><rect width="94.145" height="1.838" transform="translate(84.257 559.409) rotate(-0.827)" fill="#3f3d56"/><path d="M513.665,634.56a4.565,4.565,0,1,1,2.01.467A4.565,4.565,0,0,1,513.665,634.56Zm1.116-6.738a2.739,2.739,0,0,0-1.58,1.4h0a2.764,2.764,0,1,0,1.58-1.4Z" transform="translate(-333.331 -71.025)" fill="#3f3d56"/><path d="M331.686,385.708a11.962,11.962,0,0,1,11.949-11.949h48.713a11.949,11.949,0,0,1,0,23.9H343.635A11.962,11.962,0,0,1,331.686,385.708Z" transform="translate(-318.819 -61.423)" fill="#6c63ff"/><rect width="94.145" height="1.838" transform="translate(97.125 320.649) rotate(-0.827)" fill="#3f3d56"/><path d="M527.665,386.56a4.565,4.565,0,1,1,2.01.467A4.565,4.565,0,0,1,527.665,386.56Zm1.116-6.738a2.739,2.739,0,0,0-1.58,1.4h0a2.764,2.764,0,1,0,1.58-1.4Z" transform="translate(-334.463 -61.872)" fill="#3f3d56"/><path d="M794.574,305.656H745.861a11.949,11.949,0,1,1,0-23.9h48.713a11.949,11.949,0,1,1,0,23.9Z" transform="translate(-351.352 -58.111)" fill="#6c63ff"/><rect width="1.838" height="94.145" transform="translate(276.751 232.549) rotate(-89.173)" fill="#3f3d56"/><path d="M614.116,295.021a4.6,4.6,0,1,1,2.01-.467A4.6,4.6,0,0,1,614.116,295.021Zm-.006-7.357a2.759,2.759,0,1,0,2.48,1.551h0A2.764,2.764,0,0,0,614.11,287.664Z" transform="translate(-341.289 -58.472)" fill="#3f3d56"/></g></g></g></g></svg>