<svg xmlns="http://www.w3.org/2000/svg" width="960" height="769.842" viewBox="0 0 960 769.842" xmlns:xlink="http://www.w3.org/1999/xlink" role="img" artist="Katerina Limpitsouni" source="https://undraw.co/"><g transform="translate(-605.233 -233)"><rect width="885.473" height="567.096" rx="10" transform="translate(605.612 233.502)" fill="#e6e6e6"/><rect width="834.833" height="462.419" rx="8" transform="translate(630.931 304.63)" fill="#fff"/><path d="M10,0H875.473a10,10,0,0,1,10,10V37.618a0,0,0,0,1,0,0H0a0,0,0,0,1,0,0V10A10,10,0,0,1,10,0Z" transform="translate(605.233 233)" fill="#6c63ff"/><circle cx="6.972" cy="6.972" r="6.972" transform="translate(626.216 245.26)" fill="#fff"/><circle cx="6.972" cy="6.972" r="6.972" transform="translate(652.681 245.26)" fill="#fff"/><circle cx="6.972" cy="6.972" r="6.972" transform="translate(679.146 245.26)" fill="#fff"/><path d="M11,0H203.511a11,11,0,0,1,11,11V355.457a11,11,0,0,1-11,11H11a11,11,0,0,1-11-11V11A11,11,0,0,1,11,0Z" transform="translate(706.788 352.609)" fill="#e6e6e6"/><path d="M11,0H167.759a11,11,0,0,1,11,11V89.87a11,11,0,0,1-11,11H11a11,11,0,0,1-11-11V11A11,11,0,0,1,11,0Z" transform="translate(958.33 352.609)" fill="#6c63ff"/><path d="M11,0H167.759a11,11,0,0,1,11,11V97.531a11,11,0,0,1-11,11H11a11,11,0,0,1-11-11V11A11,11,0,0,1,11,0Z" transform="translate(958.33 481.573)" fill="#e6e6e6"/><path d="M11,0H167.759a11,11,0,0,1,11,11V89.87a11,11,0,0,1-11,11H11a11,11,0,0,1-11-11V11A11,11,0,0,1,11,0Z" transform="translate(958.33 618.197)" fill="#e6e6e6"/><path d="M11,0H203.511a11,11,0,0,1,11,11V148.7a11,11,0,0,1-11,11H11a11,11,0,0,1-11-11V11A11,11,0,0,1,11,0Z" transform="translate(1175.396 352.609)" fill="#e6e6e6"/><path d="M11,0H203.511a11,11,0,0,1,11,11V148.7a11,11,0,0,1-11,11H11a11,11,0,0,1-11-11V11A11,11,0,0,1,11,0Z" transform="translate(1175.396 559.368)" fill="#e6e6e6"/><path d="M529.084,442.284a139.125,139.125,0,0,1-23.607-187.019q-3.99,4.018-7.714,8.416A139.117,139.117,0,1,0,710.411,443.112q3.716-4.4,7-9.02a139.125,139.125,0,0,1-188.325,8.192Z" transform="translate(442.456 94.029)" opacity="0.3" style="isolation:isolate"/><path d="M921.5,730.047H572.682c-.506,0-.916-.616-.916-1.375s.41-1.375.916-1.375H921.5c.506,0,.916.616.916,1.375S922,730.047,921.5,730.047Z" transform="translate(642.819 271.161)" fill="#e6e6e6"/><path d="M166.77,333.06l14.307-28.2,16.462,8.353-14.307,28.2a19.376,19.376,0,0,1-1.36,14.918c-4.46,8.789-13.971,12.921-21.245,9.23s-9.555-13.807-5.095-22.6a19.377,19.377,0,0,1,11.237-9.906Z" transform="translate(1171.2 342.928)" fill="#ed9da0"/><path d="M185.733,210.483,121.052,312.3l-19.405-17.38,46.86-102.885" transform="translate(1234.737 375.511)" fill="#6c63ff"/><path d="M83.816,240.057l-19.7,91.5,85.86,3s-11.248-63.545-7.256-74.527Z" transform="translate(1297.169 377.597)" fill="#ed9da0"/><rect width="20.064" height="26.445" transform="translate(1344.52 958.145)" fill="#ed9da0"/><path d="M207.966,608.034a6.562,6.562,0,0,0,2.753-4.611c.127-1.911-.829-3.961-2.841-6.093-.048-.614-.673-8.216-2.064-9.578.117-.407.825-3.1-.336-4.857a3.378,3.378,0,0,0-2.622-1.43l-.052,0-.026.045c-.034.059-3.419,5.941-8.513,6.457-2.92.3-5.843-1.206-8.689-4.466-.1-.241-.906-4.212-1.425-6.84l-.021-.105-27.75,14.586-16.22,4.489a4.722,4.722,0,0,0-.786,8.806l7.863,3.78a24.6,24.6,0,0,0,10.594,2.414h42.649a11.909,11.909,0,0,0,7.487-2.592Z" transform="translate(1160.678 392.214)" fill="#090814"/><rect width="20.064" height="26.445" transform="matrix(0.96, -0.279, 0.279, 0.96, 1477.645, 951.686)" fill="#ed9da0"/><path d="M70.812,593.478a6.562,6.562,0,0,0,1.356-5.2c-.412-1.87-1.9-3.572-4.43-5.057-.218-.576-2.941-7.7-4.657-8.619,0-.423-.075-3.212-1.68-4.57a3.378,3.378,0,0,0-2.917-.64l-.051.009-.012.051c-.016.066-1.624,6.659-6.37,8.577-2.721,1.1-5.948.474-9.591-1.861-.165-.2-2.047-3.791-3.279-6.169l-.049-.1L16.561,591.663,2.24,600.5a4.722,4.722,0,0,0,1.7,8.676l8.606,1.433a24.6,24.6,0,0,0,10.846-.641l40.951-11.913a11.91,11.91,0,0,0,6.465-4.58Z" transform="translate(1441.759 391.899)" fill="#090814"/><path d="M146.6,286.03l-85.86,2S8.565,438.422,10.562,581.185H82.185l4.253-165.728,12.44,172.165,94.384-5.435Z" transform="translate(1309.821 379.593)" fill="#090814"/><path d="M71.408,126.409A32.618,32.618,0,1,1,122.039,153.6a80.973,80.973,0,0,0,10.67,18.823l-32.145,26.788-6.306-41.67a32.631,32.631,0,0,1-22.851-31.128Z" transform="translate(1302.892 371.243)" fill="#ed9da0"/><path d="M85.366,170.249l36.939-8.986,23.678,30.317a48.817,48.817,0,0,1,2.478,36.925l-19.634,58.9s-59.9-1-72.88-35.941l-3.721-7.752a31.9,31.9,0,0,1,3-32.618Z" transform="translate(1311.86 374.174)" fill="#6c63ff"/><path d="M54.174,68.462a23.562,23.562,0,0,1-7.654,4.05A95.07,95.07,0,0,0,52.809,57.04c-.424-4.729-.51-7.72-.51-7.72l.076-.74c-.961-.64-2.53-.6-4.909.416,0,0-25.691-8.524-19.356-18.2,0,0-27.268,4.749-27.976,0S.135-4.387,37.081.537c14.168,1.89,22.177,7.607,26.667,13.939A19.883,19.883,0,0,1,72,14.231c3.1.591,6.379,2.857,9.331,5.558A51.673,51.673,0,0,1,94.555,39.63c7.734,20.282,23.973,71.007-4.431,77.224a23.472,23.472,0,0,1-5.02.566C65.062,117.423,57.214,88.6,54.174,68.462Z" transform="translate(1379.8 450.78) rotate(3)" fill="#090814"/><path d="M748.156,224.194a185.686,185.686,0,1,0,10.528,274.229L986.45,690.612a17.111,17.111,0,0,0,22.095-26.134l-.025-.021L780.753,472.268a185.7,185.7,0,0,0-32.6-248.074ZM733.472,453.762a139.117,139.117,0,1,1-16.608-196.04h0A139.117,139.117,0,0,1,733.472,453.762Z" transform="translate(434.107 65.943)" fill="#3f3d56"/><path d="M56.225,357.838l-.686-31.61,18.456-.4.686,31.61a19.376,19.376,0,0,1,5.839,13.8c.214,9.853-6.224,17.984-14.378,18.161S51.2,381.727,50.99,371.874a19.377,19.377,0,0,1,5.235-14.035Z" transform="translate(1380.32 381.322)" fill="#ed9da0"/><path d="M91.38,204.882V358.1H59.328L49.854,206.175" transform="translate(1370.646 376.069)" fill="#6c63ff"/></g></svg>